<svg xmlns="http://www.w3.org/2000/svg" xmlns:xlink="http://www.w3.org/1999/xlink" width="27" height="36" version="1.1" viewBox="0 0 27 36"><g fill="none" fill-rule="evenodd" stroke="none" stroke-width="1"><g id="marker-lewagon"><g id="shadow" fill="#000" fill-rule="nonzero" opacity=".04" transform="translate(3.000000, 24.000000)"><ellipse cx="10.5" cy="5.8" rx="10.5" ry="5.25"/><ellipse cx="10.5" cy="5.8" rx="10.5" ry="5.25"/><ellipse cx="10.5" cy="5.8" rx="9.5" ry="4.773"/><ellipse cx="10.5" cy="5.8" rx="8.5" ry="4.295"/><ellipse cx="10.5" cy="5.8" rx="7.5" ry="3.818"/><ellipse cx="10.5" cy="5.8" rx="6.5" ry="3.341"/><ellipse cx="10.5" cy="5.8" rx="5.5" ry="2.864"/><ellipse cx="10.5" cy="5.8" rx="4.5" ry="2.386"/></g><path id="marker" fill="#FD1015" stroke="#BD0B0F" d="M0.5,0.5 L0.5,26.5 L9.18946168,26.5 L13.5,30.3144116 L17.8105383,26.5 L26.5,26.5 L26.5,0.5 L0.5,0.5 Z"/><g id="logo-square" fill-rule="nonzero" transform="translate(1.000000, 2.000000)"><rect id="bg" width="25" height="23" x="0" y="0" fill="#FD1015"/><path id="Fill-1" fill="#FFF" d="M15.2912358,15.6590974 C15.2812016,15.7319923 15.2236588,15.7878788 15.1541731,15.7878788 C15.1522782,15.7878788 15.1503903,15.7878371 15.1485149,15.7877552 L15.1485149,15.7878788 L10.1584158,15.7878788 C10.0818622,15.7878788 10.019802,15.720043 10.019802,15.6363636 L10.0141091,15.6363636 C9.94367248,14.7031015 9.22840832,13.969697 8.35643564,13.969697 C7.48446297,13.969697 6.7691995,14.7031015 6.69876273,15.6363636 L6.69869537,15.6363636 C6.69869537,15.6366735 6.69869453,15.6369827 6.69869287,15.6372918 C6.69815949,15.6444023 6.69766366,15.6515242 6.69720541,15.6586582 C6.6873422,15.7317674 6.62970669,15.7878788 6.5600815,15.7878788 C6.55819719,15.7878788 6.5563216,15.7878377 6.55445545,15.7877562 L6.55445545,15.7878788 L6.13861386,15.7878788 C6.06205955,15.7878788 6,15.720043 6,15.6363636 L6,15.3333333 C6,15.2496545 6.06205955,15.1818182 6.13861386,15.1818182 L6.13861353,13.2121212 C6.13861386,13.1284424 6.20067337,13.0606061 6.27722772,13.0606061 L16.9519782,13.0606061 C17.6928457,13.0606061 18.3582505,13.4137788 18.8149707,13.974503 C18.8493802,14.0167485 18.8926485,14.0758061 18.944777,14.1516758 C18.9971398,14.2278879 19.079256,14.2727303 19.1664539,14.2727303 L19.1664539,14.2727273 L19.3122604,14.2727273 C19.4149206,14.2727273 19.5520596,14.2727273 19.7236802,14.2727288 C19.8763703,14.2732636 20,14.4087288 20,14.5757576 L20,15.4848485 C20,15.6522073 19.8758851,15.7878788 19.7227723,15.7878788 L18.7524752,15.7878788 L18.7524752,15.7877591 C18.7506303,15.7878389 18.7487756,15.7878788 18.7469127,15.7878788 C18.6769889,15.7878788 18.6191592,15.7312861 18.6096655,15.6577179 C18.6092442,15.6512179 18.6087923,15.6447276 18.6083099,15.6382467 C18.6083016,15.6376195 18.6082988,15.636992 18.6082988,15.6363636 L18.6081671,15.6363636 C18.5377319,14.7031015 17.8224677,13.969697 16.950495,13.969697 C16.0785224,13.969697 15.3632582,14.7031015 15.292823,15.6363636 L15.2927869,15.6363636 C15.2927869,15.6365238 15.2927869,15.6366844 15.2927855,15.6368445 C15.2922297,15.6442497 15.2917127,15.6516676 15.2912358,15.6590974 Z M19.7227723,13.5151515 C19.7227723,13.5988303 19.6607121,13.6666667 19.5841584,13.6666667 L19.3662145,13.6666667 C19.3266416,13.6666667 19.2889566,13.6481803 19.2626519,13.6158636 L19.2626574,13.6158606 C19.1717198,13.5041409 19.0997293,13.4208455 19.0466846,13.3659727 C18.5005349,12.8010136 17.7632713,12.4545455 16.9519782,12.4545455 L6.27722772,12.4545455 C6.20067337,12.4545455 6.13861386,12.3867091 6.13861386,12.3030303 L6.13861277,8.77819394 C6.13861329,8.09822121 6.59689929,7.52216061 7.2129485,7.42776212 C9.07402436,7.14258788 10.8261202,7 12.4692337,7 C15.4029337,7 16.5435608,7.25524242 17.6435644,7.90909091 C18.313395,8.30724242 18.9496327,9.26872879 19.5522758,10.793547 C19.6647499,11.0781333 19.7227723,11.3848636 19.7227723,11.6948712 L19.7227723,13.5151515 Z M6.13861342,12.6060606 L6.13861342,12.9090909 L6.13861342,12.6060606 Z M6.96214321,8.81818182 C6.89009214,8.81818182 6.83168317,8.88202727 6.83168317,8.96078485 L6.83168317,11.0998212 C6.83168317,11.1785788 6.89009214,11.2424242 6.96214321,11.2424242 L8.91904436,11.2424242 C8.99109584,11.2424242 9.04950495,11.1785788 9.04950495,11.0998212 L9.04950495,8.96078485 C9.04950495,8.88202727 8.99109584,8.81818182 8.91904436,8.81818182 L6.96214321,8.81818182 Z M12.7839259,8.81818182 C12.7118745,8.81818182 12.6534653,8.88202727 12.6534653,8.96078485 L12.6534653,11.0998212 C12.6534653,11.1785788 12.7118745,11.2424242 12.7839259,11.2424242 L14.7408265,11.2424242 C14.812878,11.2424242 14.8712871,11.1785788 14.8712871,11.0998212 L14.8712871,8.96078485 C14.8712871,8.88202727 14.812878,8.81818182 14.7408265,8.81818182 L12.7839259,8.81818182 Z M9.87303485,8.81818182 C9.80098337,8.81818182 9.74257426,8.88202727 9.74257426,8.96078485 L9.74257426,11.0998212 C9.74257426,11.1785788 9.80098337,11.2424242 9.87303485,11.2424242 L11.8299354,11.2424242 C11.9019869,11.2424242 11.960396,11.1785788 11.960396,11.0998212 L11.960396,8.96078485 C11.960396,8.88202727 11.9019869,8.81818182 11.8299354,8.81818182 L9.87303485,8.81818182 Z M15.5643537,8.96078485 L15.5643537,11.0998212 C15.5643537,11.1785788 15.6227628,11.2424242 15.6948143,11.2424242 L18.8418451,11.2424242 C18.8578329,11.2424242 18.8736834,11.2392121 18.8886065,11.23295 C18.9558689,11.2047212 18.9894592,11.1222348 18.9636341,11.0487136 C18.8206552,10.6416515 18.6553956,10.2672682 18.467858,9.92556212 C18.4396695,9.87420152 18.4137543,9.82328333 18.3901095,9.77280455 C18.1156083,9.18681818 17.5640388,8.81818333 16.9617574,8.81818182 L15.6948143,8.81818182 C15.6227628,8.81818182 15.5643537,8.88202727 15.5643537,8.96078485 Z M8.35643564,17 C7.74400079,17 7.24752475,16.4573148 7.24752475,15.7878788 C7.24752475,15.1184424 7.74400079,14.5757576 8.35643564,14.5757576 C8.9688705,14.5757576 9.46534653,15.1184424 9.46534653,15.7878788 C9.46534653,16.4573148 8.9688705,17 8.35643564,17 Z M8.35643564,16.3939394 C8.66265307,16.3939394 8.91089109,16.1225971 8.91089109,15.7878788 C8.91089109,15.4531606 8.66265307,15.1818182 8.35643564,15.1818182 C8.05021822,15.1818182 7.8019802,15.4531606 7.8019802,15.7878788 C7.8019802,16.1225971 8.05021822,16.3939394 8.35643564,16.3939394 Z M16.950495,17 C16.3380602,17 15.8415842,16.4573148 15.8415842,15.7878788 C15.8415842,15.1184424 16.3380602,14.5757576 16.950495,14.5757576 C17.5629299,14.5757576 18.0594059,15.1184424 18.0594059,15.7878788 C18.0594059,16.4573148 17.5629299,17 16.950495,17 Z M16.950495,16.3939394 C17.2567125,16.3939394 17.5049505,16.1225971 17.5049505,15.7878788 C17.5049505,15.4531606 17.2567125,15.1818182 16.950495,15.1818182 C16.6442776,15.1818182 16.3960396,15.4531606 16.3960396,15.7878788 C16.3960396,16.1225971 16.6442776,16.3939394 16.950495,16.3939394 Z"/></g></g></g></svg>